<mxfile host="app.diagrams.net" modified="2021-05-02T02:26:16.190Z" agent="5.0 (Macintosh; Intel Mac OS X 11_2_1) AppleWebKit/537.36 (KHTML, like Gecko) Chrome/89.0.4389.82 Safari/537.36 Edg/89.0.774.50" etag="Idc23nx2RDWTb12ZL13x" version="14.6.9" type="github">
  <diagram id="OzXlaBftvMy0MPDotnlH" name="第 1 页">
    <mxGraphModel dx="1186" dy="771" grid="1" gridSize="10" guides="1" tooltips="1" connect="1" arrows="1" fold="1" page="1" pageScale="1" pageWidth="827" pageHeight="1169" math="0" shadow="0">
      <root>
        <mxCell id="0" />
        <mxCell id="1" parent="0" />
        <mxCell id="3v1t9fhe4JK9iMIilIyN-3" value="" style="edgeStyle=orthogonalEdgeStyle;rounded=0;orthogonalLoop=1;jettySize=auto;html=1;" edge="1" parent="1" source="3v1t9fhe4JK9iMIilIyN-1" target="3v1t9fhe4JK9iMIilIyN-2">
          <mxGeometry relative="1" as="geometry" />
        </mxCell>
        <mxCell id="3v1t9fhe4JK9iMIilIyN-1" value="开始" style="rounded=1;whiteSpace=wrap;html=1;" vertex="1" parent="1">
          <mxGeometry x="240" y="100" width="120" height="60" as="geometry" />
        </mxCell>
        <mxCell id="3v1t9fhe4JK9iMIilIyN-5" value="" style="edgeStyle=orthogonalEdgeStyle;rounded=0;orthogonalLoop=1;jettySize=auto;html=1;" edge="1" parent="1" source="3v1t9fhe4JK9iMIilIyN-2" target="3v1t9fhe4JK9iMIilIyN-4">
          <mxGeometry relative="1" as="geometry" />
        </mxCell>
        <mxCell id="3v1t9fhe4JK9iMIilIyN-2" value="删除商品" style="rounded=0;whiteSpace=wrap;html=1;" vertex="1" parent="1">
          <mxGeometry x="240" y="220" width="120" height="60" as="geometry" />
        </mxCell>
        <mxCell id="3v1t9fhe4JK9iMIilIyN-7" value="" style="edgeStyle=orthogonalEdgeStyle;rounded=0;orthogonalLoop=1;jettySize=auto;html=1;" edge="1" parent="1" source="3v1t9fhe4JK9iMIilIyN-4" target="3v1t9fhe4JK9iMIilIyN-6">
          <mxGeometry relative="1" as="geometry" />
        </mxCell>
        <mxCell id="3v1t9fhe4JK9iMIilIyN-10" value="" style="edgeStyle=orthogonalEdgeStyle;rounded=0;orthogonalLoop=1;jettySize=auto;html=1;" edge="1" parent="1" source="3v1t9fhe4JK9iMIilIyN-4" target="3v1t9fhe4JK9iMIilIyN-9">
          <mxGeometry relative="1" as="geometry" />
        </mxCell>
        <mxCell id="3v1t9fhe4JK9iMIilIyN-4" value="商品属于已登录用户？" style="rhombus;whiteSpace=wrap;html=1;" vertex="1" parent="1">
          <mxGeometry x="260" y="330" width="80" height="80" as="geometry" />
        </mxCell>
        <mxCell id="3v1t9fhe4JK9iMIilIyN-13" value="" style="edgeStyle=orthogonalEdgeStyle;rounded=0;orthogonalLoop=1;jettySize=auto;html=1;" edge="1" parent="1" source="3v1t9fhe4JK9iMIilIyN-6" target="3v1t9fhe4JK9iMIilIyN-12">
          <mxGeometry relative="1" as="geometry" />
        </mxCell>
        <mxCell id="3v1t9fhe4JK9iMIilIyN-6" value="删除成功" style="rounded=0;whiteSpace=wrap;html=1;" vertex="1" parent="1">
          <mxGeometry x="240" y="450" width="120" height="60" as="geometry" />
        </mxCell>
        <mxCell id="3v1t9fhe4JK9iMIilIyN-8" value="是" style="text;html=1;align=center;verticalAlign=middle;resizable=0;points=[];autosize=1;strokeColor=none;" vertex="1" parent="1">
          <mxGeometry x="265" y="410" width="30" height="20" as="geometry" />
        </mxCell>
        <mxCell id="3v1t9fhe4JK9iMIilIyN-14" style="edgeStyle=orthogonalEdgeStyle;rounded=0;orthogonalLoop=1;jettySize=auto;html=1;entryX=1;entryY=0.5;entryDx=0;entryDy=0;" edge="1" parent="1" source="3v1t9fhe4JK9iMIilIyN-9" target="3v1t9fhe4JK9iMIilIyN-12">
          <mxGeometry relative="1" as="geometry">
            <Array as="points">
              <mxPoint x="490" y="600" />
            </Array>
          </mxGeometry>
        </mxCell>
        <mxCell id="3v1t9fhe4JK9iMIilIyN-9" value="删除失败" style="rounded=0;whiteSpace=wrap;html=1;" vertex="1" parent="1">
          <mxGeometry x="430" y="340" width="120" height="60" as="geometry" />
        </mxCell>
        <mxCell id="3v1t9fhe4JK9iMIilIyN-11" value="否" style="text;html=1;align=center;verticalAlign=middle;resizable=0;points=[];autosize=1;strokeColor=none;" vertex="1" parent="1">
          <mxGeometry x="375" y="340" width="30" height="20" as="geometry" />
        </mxCell>
        <mxCell id="3v1t9fhe4JK9iMIilIyN-12" value="结束" style="rounded=1;whiteSpace=wrap;html=1;" vertex="1" parent="1">
          <mxGeometry x="240" y="570" width="120" height="60" as="geometry" />
        </mxCell>
      </root>
    </mxGraphModel>
  </diagram>
</mxfile>
